<svg xmlns="http://www.w3.org/2000/svg" viewBox="0 0 1322 336" width="1322" height="336" role="img" aria-label="steelshelf"><title>steelshelf</title>
<rect width="1322" height="336" rx="48" fill="#EEF2F8"/>
<g transform="translate(40 40)">
<rect width="256" height="256" rx="56" fill="#0E1A33"/>
  <rect x="40" y="66" width="32" height="120" rx="6" fill="#C9CED4"/>
  <rect x="78" y="46" width="32" height="140" rx="6" fill="#4C9BFF"/>
  <rect x="116" y="74" width="32" height="112" rx="6" fill="#C9CED4"/>
  <path fill="#E8EEF7" fill-rule="evenodd" d="M186 117a35 35 0 1 1 0 70a35 35 0 1 1 0-70zM186 142a10 10 0 1 0 0 20a10 10 0 1 0 0-20z"/>
  <rect x="28" y="186" width="200" height="18" rx="5" fill="#E8EEF7"/>
<path fill="#111A2C" d="M361.9630373047292 188.6253321038559Q368.4982788331434 188.6253321038559 372.04871403822676 185.42840031674132Q375.5991492433101 182.23146852962674 375.5991492433101 177.29920991152525Q375.5991492433101 173.98536940868945 374.1235278383642 171.2399408259988Q372.64790643341837 168.49451224330812 368.6144699467532 166.157889556624Q364.58103346008807 163.82126686993988 356.9677880867198 161.8514408935234Q341.3103019046411 158.04623995374888 332.73885082416234 152.8270561037399Q324.16739974368363 147.6078722537309 320.84311029665173 140.85780040925368Q317.51882084961983 134.1077285647765 317.51882084961983 125.73156479515136Q317.51882084961983 110.73764383547008 327.8703668458387 102.3488847228326Q338.22191284205763 93.9601256101951 357.0797803961858 93.9601256101951Q364.127354163453 93.9601256101951 368.54644373869525 95.17812454210595Q372.9655333139375 96.39612347401679 375.5387267770618 97.61972266227008Q378.1119202401861 98.84332185052335 379.64490485932674 98.84332185052335Q381.49568554781376 98.84332185052335 383.640483325962 97.61972266227008Q385.7852811041102 96.39612347401679 387.92307567793875 95.1725242857635Q390.06087025176737 93.94892509751023 391.8668424808234 93.94892509751023Q393.1016193241999 93.94892509751023 394.12990022638814 94.7294088622369Q395.1581811285764 95.50989262696356 395.74476899486035 97.73725092798472L401.39240044008943 123.1109421864152Q402.2631828376651 125.99488066334277 401.89149044260387 127.76024622749537Q401.51979804754257 129.52561179164798 399.81603359419853 130.21719965793193Q398.12346965353936 130.84858615703882 396.844595758114 130.23119773535058Q395.56572186268863 129.61380931366236 394.3421489499137 127.83724665474146Q388.57135886248204 117.98261136487126 382.90486185343934 112.13479777866974Q377.2383648443967 106.28698419246822 371.3492603156716 103.7074826971069Q365.4601557869464 101.12798120174557 358.9165448494256 101.12798120174557Q351.404094690755 101.12798120174557 347.55546217722815 104.43901409966871Q343.70682966370134 107.75004699759185 343.70682966370134 113.28570236865431Q343.70682966370134 116.91873227577656 345.50234184013675 119.81746055932715Q347.2978540165722 122.71618884287774 352.2188738834113 125.14591306759044Q357.13989375025034 127.57563729230314 366.43731870129704 129.81985703095793Q379.58745427273215 132.89006096150726 387.326621246729 137.78654643511402Q395.06578822072595 142.68303190872075 398.4432756170444 149.3645041378029Q401.82076301336286 156.04597636688501 401.82076301336286 164.59573569327594Q401.82076301336286 174.10588878169656 396.9529949285835 181.1597552001849Q392.0852268438041 188.21362161867322 383.70347734417766 192.08180482791738Q375.3217278445512 195.94998803716152 364.66498603530226 195.94998803716152Q358.0416144897044 195.94998803716152 353.75622115468605 194.5191834228672Q349.47082781966776 193.08837880857288 346.79683187847957 191.663174450621Q344.12283593729137 190.23797009266912 342.44705439426 190.23797009266912Q340.75867900360373 190.23797009266912 338.5354940855317 191.59457355340942Q336.3123091674596 192.95117701414972 334.0877230103687 194.31338073123246Q331.8631368532777 195.6755844483152 330.1831594972685 195.6755844483152Q328.8573856446147 195.6755844483152 327.8613016235456 194.6550032043457Q326.8652176024765 193.63442196037622 326.4312244383618 191.1816673336923L322.569993163906 168.613594702743Q322.05060153789816 165.44124580118805 322.47339098498225 163.9145713503845Q322.89618043206633 162.38789689958097 324.44874992687255 161.68931074228138Q326.05731514927 160.97532526854425 327.3431873357109 161.76631138309835Q328.6290595221519 162.55729749765248 329.9954297859594 164.55366135276853Q338.00621047418565 177.56250057365745 345.9904178227298 183.09391633875669Q353.97462517127394 188.6253321038559 361.9630373047292 188.6253321038559ZM420.0156750242785 104.6307841071859 413.90319709461187 102.9703822273761Q412.300209912099 102.41179051592947 411.5995192260482 101.60960559764877Q410.89882853999734 100.80742067936808 410.89882853999734 99.68604187063873Q410.89882853999734 98.1712761355564 411.94670606698844 97.32989454975352Q412.9945835939795 96.48851296395064 414.6339478763938 96.48851296395064H421.98679179735484Q423.4315917118639 96.48851296395064 424.54668214157226 95.88302001345903Q425.6617725712806 95.27752706296742 427.11634035710244 93.65214611805976L446.5537880854681 75.07975876461715Q448.3989467282966 73.14639234602451 450.1006119933352 72.1797091367282Q451.8022772583738 71.21302592743189 453.3436496584118 71.21302592743189Q455.08801735874266 71.21302592743189 456.0889985599928 72.35120400980115Q457.0899797612429 73.48938209217042 457.0899797612429 75.65373996589334V162.51827600050717Q457.0899797612429 170.69287070252003 460.0908861271106 174.8207661736384Q463.0917924929783 178.94866164475678 468.4075992433727 178.94866164475678Q471.4245834353194 178.94866164475678 473.4006815554574 177.72367916174233Q475.37677967559546 176.49869667872787 476.7655817264132 174.63111564835532Q478.154383777231 172.7635346179828 479.42487929122524 170.73984329106287Q480.6953748052195 168.7161519641429 482.24515463937075 167.11873427633196Q483.3287331062928 166.77573128566146 484.16032054530456 167.46311522131788Q484.99190798431636 168.15049915697426 484.893906275332 170.12586130321026Q484.1392919198424 177.83558559536934 480.21233015818524 183.60212133770807Q476.2853683965281 189.36865708004683 469.5528444034048 192.57811820073053Q462.82032041028145 195.78757932141423 453.70501850590114 195.78757932141423Q439.0835374511406 195.78757932141423 431.1119948729687 188.77503161631523Q423.1404522947967 181.76248391121626 423.1404522947967 167.38178867194802V109.0491398446262Q423.1404522947967 107.07236129231751 422.4453586607426 106.13366782916711Q421.75026502668857 105.1949743660167 420.0156750242785 104.6307841071859ZM445.5149176761881 104.42355026956648 445.98531870145354 96.48851296395064H480.76398745156825Q482.55455651912837 96.48851296395064 483.56323566963897 97.21159783953802Q484.5719148201496 97.93468271512539 484.5719148201496 99.38085588421673Q484.5719148201496 101.49901196356863 482.43835600644354 102.96128111656756Q480.3047971927375 104.42355026956648 475.6456958005205 104.42355026956648ZM587.8206176142767 135.05287468168885Q587.8206176142767 138.98680034123362 585.5946554253995 141.18895855676385Q583.3686932365224 143.39111677229405 579.0819633901119 143.39111677229405H514.4831075073033V137.27603076104074H549.7411106558517Q553.5742718619481 137.27603076104074 553.5742718619481 133.51006921313703Q553.5742718619481 117.03904357910156 549.3546196954139 109.39990188030526Q545.1349675288797 101.76076018150896 538.9216785763576 101.76076018150896Q534.1503938961401 101.76076018150896 530.4543379269539 105.18309641193599Q526.7582819577678 108.60543264236301 524.6204540586657 115.7384864751622Q522.4826261595637 122.87154030796141 522.4826261595637 133.92179379869253Q522.4826261595637 154.5508279780671 531.4769450864196 164.46076830999925Q540.4712640132755 174.3707086419314 555.4596744379029 174.3707086419314Q565.0245264757052 174.3707086419314 571.8460589461215 170.2182454526983Q578.6675914165378 166.06578226346522 581.3919454454631 158.31110980287195Q582.7233075917512 156.7977369755879 583.5534903738276 156.27064569136127Q584.3836731559038 155.74355440713464 585.149458971396 155.74355440713464Q586.2946385491267 155.74355440713464 586.8777289788611 156.80543172050267Q587.4608194085955 157.8673090338707 587.4398181268573 159.54027784511447Q587.1906022332608 169.593663062118 581.2609222284145 177.88094161419198Q575.3312422235682 186.16822016626597 565.1490925532207 191.0633046144247Q554.9669428828731 195.95838906258345 541.8518205562234 195.95838906258345Q527.1476691769436 195.95838906258345 515.7139175412432 189.83479863295332Q504.2801659055427 183.7112082033232 497.7421983762458 172.69952072169633Q491.2042308469489 161.68783324006944 491.2042308469489 147.05364597201347Q491.2042308469489 131.0740863039717 497.4797096982412 119.1531036073342Q503.7551885495335 107.2321209106967 515.4710400143824 100.61012454221026Q527.1868914792315 93.98812817372382 543.3484131223709 93.98812817372382Q557.42253160391 93.98812817372382 567.3694890928455 99.31162026956679Q577.3164465817808 104.63511236540974 582.5685320980288 113.90170023143293Q587.8206176142767 123.1682880974561 587.8206176142767 135.05287468168885ZM693.9756176142766 135.05287468168885Q693.9756176142766 138.98680034123362 691.7496554253995 141.18895855676385Q689.5236932365224 143.39111677229405 685.2369633901119 143.39111677229405H620.6381075073033V137.27603076104074H655.8961106558517Q659.7292718619481 137.27603076104074 659.7292718619481 133.51006921313703Q659.7292718619481 117.03904357910156 655.5096196954139 109.39990188030526Q651.2899675288796 101.76076018150896 645.0766785763576 101.76076018150896Q640.3053938961401 101.76076018150896 636.6093379269539 105.18309641193599Q632.9132819577678 108.60543264236301 630.7754540586657 115.7384864751622Q628.6376261595636 122.87154030796141 628.6376261595636 133.92179379869253Q628.6376261595636 154.5508279780671 637.6319450864196 164.46076830999925Q646.6262640132754 174.3707086419314 661.6146744379029 174.3707086419314Q671.1795264757052 174.3707086419314 678.0010589461215 170.2182454526983Q684.8225914165378 166.06578226346522 687.546945445463 158.31110980287195Q688.8783075917512 156.7977369755879 689.7084903738275 156.27064569136127Q690.5386731559038 155.74355440713464 691.304458971396 155.74355440713464Q692.4496385491267 155.74355440713464 693.0327289788611 156.80543172050267Q693.6158194085955 157.8673090338707 693.5948181268573 159.54027784511447Q693.3456022332608 169.593663062118 687.4159222284145 177.88094161419198Q681.4862422235682 186.16822016626597 671.3040925532207 191.0633046144247Q661.1219428828731 195.95838906258345 648.0068205562234 195.95838906258345Q633.3026691769436 195.95838906258345 621.868917541243 189.83479863295332Q610.4351659055426 183.7112082033232 603.8971983762458 172.69952072169633Q597.3592308469489 161.68783324006944 597.3592308469489 147.05364597201347Q597.3592308469489 131.0740863039717 603.6347096982412 119.1531036073342Q609.9101885495335 107.2321209106967 621.6260400143824 100.61012454221026Q633.3418914792314 93.98812817372382 649.5034131223708 93.98812817372382Q663.57753160391 93.98812817372382 673.5244890928454 99.31162026956679Q683.4714465817808 104.63511236540974 688.7235320980287 113.90170023143293Q693.9756176142766 123.1682880974561 693.9756176142766 135.05287468168885ZM748.8723944580182 41.1995776129514V180.13020165916532Q748.8723944580182 182.85036500159651 749.5611980040931 184.15025363685564Q750.2500015501678 185.45014227211476 751.8068031736091 185.94573654703797L755.7380686277523 186.95653646159917Q757.2598493162915 187.46612390063703 757.9101411131769 188.30120706724003Q758.5604329100623 189.13629023384303 758.5604329100623 190.28007006794215Q758.5604329100623 191.77943648658692 757.5629525632783 192.63971824329346Q756.5654722164943 193.5 754.4025175043195 193.5H708.7403360840677Q706.6473835081234 193.5 705.6359033749625 192.63971824329346Q704.6244232418015 191.77943648658692 704.6244232418015 190.28007006794215Q704.6244232418015 189.1572915155813 705.2887163204514 188.31240757992492Q705.9530093991011 187.4675236442685 707.4831911130622 186.94813543617727L711.4396570798382 185.94573654703797Q713.0356587887183 185.43894175942987 713.7048622920736 184.1502536368556Q714.374065795429 182.86156551428138 714.374065795429 180.16100370995701V57.856569630168394Q714.374065795429 55.8896016735211 713.7433723323047 55.01391376454383Q713.1126788691803 54.13822585556656 711.7476882686466 53.9142326914519L707.1163847897574 53.600642261691405Q705.7234044430777 53.28705183193088 705.1179129879736 52.552766443658626Q704.5124215328693 51.81848105538637 704.5124215328693 50.688704212009924Q704.5124215328693 49.36013129923492 705.2887079892307 48.58874693635852Q706.0649944455921 47.817362573482114 708.0207550537214 47.096378808729355L735.6846623399108 38.268034607246534Q738.8360031238942 37.12285844743252 740.5607690725475 36.67486870128661Q742.2855350212008 36.226878955140705 743.6841070794313 36.226878955140705Q746.2838510250672 36.226878955140705 747.5781227415428 37.62334968896583Q748.8723944580182 39.01982042279096 748.8723944580182 41.1995776129514ZM812.5180373047293 188.6253321038559Q819.0532788331435 188.6253321038559 822.6037140382268 185.42840031674132Q826.1541492433101 182.23146852962674 826.1541492433101 177.29920991152525Q826.1541492433101 173.98536940868945 824.6785278383643 171.2399408259988Q823.2029064334184 168.49451224330812 819.1694699467532 166.157889556624Q815.1360334600881 163.82126686993988 807.5227880867199 161.8514408935234Q791.8653019046411 158.04623995374888 783.2938508241624 152.8270561037399Q774.7223997436837 147.6078722537309 771.3981102966518 140.85780040925368Q768.0738208496199 134.1077285647765 768.0738208496199 125.73156479515136Q768.0738208496199 110.73764383547008 778.4253668458389 102.3488847228326Q788.7769128420578 93.9601256101951 807.6347803961859 93.9601256101951Q814.682354163453 93.9601256101951 819.1014437386953 95.17812454210595Q823.5205333139376 96.39612347401679 826.0937267770619 97.61972266227008Q828.6669202401862 98.84332185052335 830.1999048593268 98.84332185052335Q832.0506855478138 98.84332185052335 834.195483325962 97.61972266227008Q836.3402811041102 96.39612347401679 838.4780756779388 95.1725242857635Q840.6158702517674 93.94892509751023 842.4218424808234 93.94892509751023Q843.6566193241999 93.94892509751023 844.6849002263882 94.7294088622369Q845.7131811285765 95.50989262696356 846.2997689948604 97.73725092798472L851.9474004400895 123.1109421864152Q852.8181828376652 125.99488066334277 852.4464904426038 127.76024622749537Q852.0747980475426 129.52561179164798 850.3710335941986 130.21719965793193Q848.6784696535394 130.84858615703882 847.3995957581141 130.23119773535058Q846.1207218626887 129.61380931366236 844.8971489499138 127.83724665474146Q839.1263588624821 117.98261136487126 833.4598618534394 112.13479777866974Q827.7933648443968 106.28698419246822 821.9042603156716 103.7074826971069Q816.0151557869465 101.12798120174557 809.4715448494256 101.12798120174557Q801.959094690755 101.12798120174557 798.1104621772282 104.43901409966871Q794.2618296637014 107.75004699759185 794.2618296637014 113.28570236865431Q794.2618296637014 116.91873227577656 796.0573418401368 119.81746055932715Q797.8528540165723 122.71618884287774 802.7738738834114 125.14591306759044Q807.6948937502505 127.57563729230314 816.9923187012971 129.81985703095793Q830.1424542727322 132.89006096150726 837.8816212467291 137.78654643511402Q845.620788220726 142.68303190872075 848.9982756170446 149.3645041378029Q852.375763013363 156.04597636688501 852.375763013363 164.59573569327594Q852.375763013363 174.10588878169656 847.5079949285836 181.1597552001849Q842.6402268438042 188.21362161867322 834.2584773441777 192.08180482791738Q825.8767278445513 195.94998803716152 815.2199860353023 195.94998803716152Q808.5966144897044 195.94998803716152 804.3112211546861 194.5191834228672Q800.0258278196678 193.08837880857288 797.3518318784796 191.663174450621Q794.6778359372914 190.23797009266912 793.0020543942601 190.23797009266912Q791.3136790036039 190.23797009266912 789.0904940855318 191.59457355340942Q786.8673091674597 192.95117701414972 784.6427230103686 194.31338073123246Q782.4181368532777 195.6755844483152 780.7381594972686 195.6755844483152Q779.4123856446148 195.6755844483152 778.4163016235457 194.6550032043457Q777.4202176024766 193.63442196037622 776.9862244383619 191.1816673336923L773.1249931639061 168.613594702743Q772.6056015378982 165.44124580118805 773.0283909849823 163.9145713503845Q773.4511804320664 162.38789689958097 775.0037499268726 161.68931074228138Q776.6123151492701 160.97532526854425 777.8981873357111 161.76631138309835Q779.184059522152 162.55729749765248 780.5504297859595 164.55366135276853Q788.5612104741857 177.56250057365745 796.5454178227299 183.09391633875669Q804.529625171274 188.6253321038559 812.5180373047293 188.6253321038559ZM909.3473859130963 41.1995776129514V180.13020165916532Q909.3473859130963 182.85036500159651 910.036189459171 184.12785432044416Q910.7249930052459 185.40534363929183 912.2817946286872 185.94573654703797L916.1234628171846 187.0013350944221Q918.4978407712653 188.02611193779856 918.4978407712653 190.10087553665042Q918.4978407712653 193.5 914.2951267326995 193.5H869.215327539146Q867.1223749632015 193.5 866.1108948300406 192.63971824329346Q865.0994146968796 191.77943648658692 865.0994146968796 190.28007006794215Q865.0994146968796 189.1572915155813 865.7637077755294 188.31240757992492Q866.4280008541792 187.4675236442685 867.9581825681403 186.94813543617727L871.9146485349163 185.94573654703797Q873.5106502437964 185.43894175942987 874.1798537471518 184.1502536368556Q874.8490572505071 182.86156551428138 874.8490572505071 180.16100370995701V57.856569630168394Q874.8490572505071 55.8896016735211 874.2183637873828 55.01391376454383Q873.5876703242585 54.13822585556656 872.2226797237247 53.9142326914519L867.5913762448355 53.600642261691405Q866.1983958981558 53.28705183193088 865.5929044430516 52.552766443658626Q864.9874129879474 51.81848105538637 864.9874129879474 50.688704212009924Q864.9874129879474 49.36013129923492 865.7636994443088 48.58874693635852Q866.5399859006702 47.817362573482114 868.4957465087995 47.096378808729355L896.1596537949889 38.268034607246534Q899.1765986805036 37.16765708025545 900.9237639455682 36.69726801769808Q902.670929210633 36.226878955140705 904.3382930658013 36.226878955140705Q906.8036411129683 36.226878955140705 908.0755135130323 37.62334968896583Q909.3473859130963 39.01982042279096 909.3473859130963 41.1995776129514ZM906.2506171876564 122.55634505644441 902.683481616117 118.79321589354426 906.4830942622572 115.38840657982975Q918.9528322263434 104.11426887195557 928.0961854001507 99.0609992918931Q937.2395385739579 94.00772971183062 945.0445137937367 94.00772971183062Q956.587476196289 94.00772971183062 963.0288522279448 101.47040245385841Q969.4702282596006 108.9330751958862 970.9080358646437 122.51446169525386L977.2178819216788 179.92578781630843Q977.5286797000094 182.74815808016808 978.1285888430289 184.11875171424822Q978.7284979860484 185.48934534832836 980.3763060182332 185.99614013593643L984.0947566040977 186.98733851239086Q985.5857352418452 187.49692595142872 986.2304267823882 188.327108733505Q986.8751183229313 189.1572915155813 986.8751183229313 190.28007006794215Q986.8751183229313 191.77943648658692 985.8888384888321 192.63971824329346Q984.902558654733 193.5 982.7396039425581 193.5H937.0214067143575Q932.7990911376849 193.5 932.7990911376849 190.10087553665042Q932.7990911376849 188.04571347590536 935.1818701171875 187.0013350944221L939.1075434326381 185.94573654703797Q940.8155528319999 185.40534363929183 941.6345549681782 184.0515490652807Q942.4535571043566 182.6977544912696 942.1427593260258 179.92578781630843L936.7233044676482 126.88799316510558Q935.9224887449294 119.45811420980841 933.1917602475733 115.86497849196196Q930.461031750217 112.27184277411551 924.8903853512182 112.27184277411551Q921.3217530513926 112.27184277411551 917.6383180599846 114.03866511901842Q913.9548830685765 115.80548746392131 910.1510207762941 119.14034206587822ZM1088.3556176142768 135.05287468168885Q1088.3556176142768 138.98680034123362 1086.1296554253995 141.18895855676385Q1083.9036932365223 143.39111677229405 1079.6169633901118 143.39111677229405H1015.0181075073033V137.27603076104074H1050.2761106558517Q1054.109271861948 137.27603076104074 1054.109271861948 133.51006921313703Q1054.109271861948 117.03904357910156 1049.8896196954138 109.39990188030526Q1045.6699675288796 101.76076018150896 1039.4566785763577 101.76076018150896Q1034.68539389614 101.76076018150896 1030.989337926954 105.18309641193599Q1027.293281957768 108.60543264236301 1025.1554540586658 115.7384864751622Q1023.0176261595636 122.87154030796141 1023.0176261595636 133.92179379869253Q1023.0176261595636 154.5508279780671 1032.0119450864195 164.46076830999925Q1041.0062640132755 174.3707086419314 1055.9946744379029 174.3707086419314Q1065.559526475705 174.3707086419314 1072.3810589461214 170.2182454526983Q1079.2025914165376 166.06578226346522 1081.926945445463 158.31110980287195Q1083.2583075917512 156.7977369755879 1084.0884903738274 156.27064569136127Q1084.918673155904 155.74355440713464 1085.684458971396 155.74355440713464Q1086.8296385491267 155.74355440713464 1087.4127289788612 156.80543172050267Q1087.9958194085955 157.8673090338707 1087.9748181268571 159.54027784511447Q1087.7256022332608 169.593663062118 1081.7959222284144 177.88094161419198Q1075.8662422235682 186.16822016626597 1065.6840925532206 191.0633046144247Q1055.501942882873 195.95838906258345 1042.3868205562233 195.95838906258345Q1027.6826691769436 195.95838906258345 1016.2489175412431 189.83479863295332Q1004.8151659055426 183.7112082033232 998.2771983762457 172.69952072169633Q991.7392308469489 161.68783324006944 991.7392308469489 147.05364597201347Q991.7392308469489 131.0740863039717 998.0147096982412 119.1531036073342Q1004.2901885495335 107.2321209106967 1016.0060400143824 100.61012454221026Q1027.7218914792313 93.98812817372382 1043.8834131223707 93.98812817372382Q1057.95753160391 93.98812817372382 1067.9044890928453 99.31162026956679Q1077.851446581781 104.63511236540974 1083.1035320980288 113.90170023143293Q1088.3556176142768 123.1682880974561 1088.3556176142768 135.05287468168885ZM1143.252394458018 41.1995776129514V180.13020165916532Q1143.252394458018 182.85036500159651 1143.9411980040927 184.15025363685564Q1144.6300015501677 185.45014227211476 1146.186803173609 185.94573654703797L1150.118068627752 186.95653646159917Q1151.6398493162912 187.46612390063703 1152.2901411131766 188.30120706724003Q1152.940432910062 189.13629023384303 1152.940432910062 190.28007006794215Q1152.940432910062 191.77943648658692 1151.9429525632781 192.63971824329346Q1150.9454722164942 193.5 1148.7825175043195 193.5H1103.1203360840677Q1101.0273835081232 193.5 1100.0159033749624 192.63971824329346Q1099.0044232418013 191.77943648658692 1099.0044232418013 190.28007006794215Q1099.0044232418013 189.1572915155813 1099.668716320451 188.31240757992492Q1100.333009399101 187.4675236442685 1101.863191113062 186.94813543617727L1105.819657079838 185.94573654703797Q1107.415658788718 185.43894175942987 1108.0848622920735 184.1502536368556Q1108.754065795429 182.86156551428138 1108.754065795429 180.16100370995701V57.856569630168394Q1108.754065795429 55.8896016735211 1108.1233723323046 55.01391376454383Q1107.4926788691803 54.13822585556656 1106.1276882686464 53.9142326914519L1101.4963847897573 53.600642261691405Q1100.1034044430776 53.28705183193088 1099.4979129879735 52.552766443658626Q1098.892421532869 51.81848105538637 1098.892421532869 50.688704212009924Q1098.892421532869 49.36013129923492 1099.6687079892304 48.58874693635852Q1100.4449944455919 47.817362573482114 1102.4007550537212 47.096378808729355L1130.0646623399107 38.268034607246534Q1133.216003123894 37.12285844743252 1134.9407690725475 36.67486870128661Q1136.6655350212006 36.226878955140705 1138.0641070794313 36.226878955140705Q1140.663851025067 36.226878955140705 1141.9581227415424 37.62334968896583Q1143.252394458018 39.01982042279096 1143.252394458018 41.1995776129514ZM1210.5461315677687 180.0070028554648Q1210.5461315677687 182.39117132484913 1211.4365289615466 183.73585688397287Q1212.3269263553245 185.08054244309665 1214.4213115726411 185.37454116135837L1225.3497305427118 186.87253774333746Q1227.1459015755727 187.0573342399299 1227.9669900826736 187.96801488580184Q1228.7880785897746 188.87869553167374 1228.7880785897746 190.23527143511922Q1228.7880785897746 193.5 1224.7645590825007 193.5H1167.5133386475966Q1165.7731765868514 193.5 1164.7140985471756 192.68171760242433Q1163.6550205074996 191.86343520484866 1163.6550205074996 190.44806750446557Q1163.6550205074996 189.09149501893668 1164.4243086728452 188.25361257864162Q1165.193596838191 187.41573013834656 1166.9141671874374 186.95094133213163L1172.3630350338667 185.6657374015823Q1174.6030132444203 185.0245467155054 1175.5214085019938 183.80586094273252Q1176.4398037595674 182.58717516995966 1176.4398037595674 180.51940302629023V112.07026003561914Q1176.4398037595674 110.65906806785614 1175.7279093564862 109.61677584372461Q1175.0160149534047 108.57448361959308 1173.0910333249344 107.87589746229351L1165.5197371090203 105.62469865869731Q1163.317572057657 104.67272002089769 1162.4796861994453 103.79283822147175Q1161.6418003412336 102.91295642204582 1161.6418003412336 101.74677898049354Q1161.6418003412336 100.45600640952587 1162.619680645298 99.61462482372299Q1163.5975609493628 98.77324323792011 1165.5449171141533 98.77324323792011H1181.3873053226619L1176.568604101427 101.15322358444334V98.98322529327125Q1176.568604101427 96.32459812045097 1174.9453112364001 93.66457633087413Q1173.3220183713734 91.00455454129727 1171.1786275998315 87.91543997213245Q1169.03523682829 84.82632540296764 1167.4119439632632 80.81882048953325Q1165.7886510982364 76.81131557609886 1165.7886510982364 71.46752292461694Q1165.7886510982364 57.72657333981246 1175.1874856870995 49.69830290520564Q1184.5863202759624 41.67003247059881 1201.2559774906933 41.67003247059881Q1211.9756846930086 41.67003247059881 1219.1821229561046 45.083908074852076Q1226.3885612192005 48.49778367910534 1230.0047303294018 54.15514347525314Q1233.6208994396031 59.81250327140094 1233.6208994396031 66.51425661608577Q1233.6208994396031 74.04058842748404 1229.648444941286 77.83595270968974Q1225.675990442969 81.63131699189545 1219.3578621348738 81.63131699189545Q1212.5749484384805 81.63131699189545 1208.3322974862904 77.34176266456024Q1204.0896465341002 73.05220833722503 1204.0896465341002 65.87868071269244V56.10394189484418Q1204.0896465341002 51.84373369183393 1202.0148455513454 49.81302463425325Q1199.9400445685908 47.78231557667257 1196.1516243170947 47.78231557667257Q1191.1241861212625 47.79351608935744 1188.4102583929337 51.06814347580075Q1185.6963306646048 54.342770862244066 1185.6963306646048 60.46641469750554Q1185.6963306646048 66.06360111091287 1188.0308152836933 70.65909769289196Q1190.3652999027818 75.25459427487105 1193.8316774295643 79.10879692381249Q1197.2980549563467 82.96299957275392 1200.7644324831292 86.37270478522406Q1204.2308100099117 89.7824099976942 1206.5652946290002 93.03951559469104Q1208.8997792480886 96.29662119168789 1208.8997792480886 99.69162204623223V102.98718171458691L1206.0522247068957 98.77324323792011H1227.0269874514638Q1228.9155552372335 98.77324323792011 1229.9438344304635 99.4914277289808Q1230.9721136236935 100.20961222004146 1230.9721136236935 101.6459846200794Q1230.9721136236935 103.84254087030888 1228.7895554508827 105.27541070692241Q1226.606997278072 106.70828054353595 1221.928297338523 106.70828054353595H1210.5461315677687Z"/>
</g>
</svg>
